<svg xmlns="http://www.w3.org/2000/svg" viewBox="0 0 24 24" fill="none" stroke="#000" stroke-width="1.6" stroke-linecap="round" stroke-linejoin="round">
  <path d="M12 3.75c.45 3.4 2.1 5.05 5.5 5.5-3.4.45-5.05 2.1-5.5 5.5-.45-3.4-2.1-5.05-5.5-5.5 3.4-.45 5.05-2.1 5.5-5.5Z"/>
  <path d="M18.25 14.25c.2 1.65 1.1 2.55 2.75 2.75-1.65.2-2.55 1.1-2.75 2.75-.2-1.65-1.1-2.55-2.75-2.75 1.65-.2 2.55-1.1 2.75-2.75Z"/>
  <path d="M5.25 14.75c.15 1.1.65 1.6 1.75 1.75-1.1.15-1.6.65-1.75 1.75-.15-1.1-.65-1.6-1.75-1.75 1.1-.15 1.6-.65 1.75-1.75Z"/>
</svg>
